# xmcd
#
# Track frame offsets: 
#        180
#        14370
#        25968
#        38979
#        52310
#        66382
#        86547
#        104542
#        116792
#        134819
#        148815
#        169276
#        183023
#        197284
#
# Disc length: 2790 seconds
#
# Revision: 0
# Processed by: cddbd v1.5.2PL0 Copyright (c) Steve Scherf et al.
# Submitted via: ExactAudioCopy v0.95b4
#
DISCID=d30ae40e
DTITLE=Johnny Loughrey - Run For The Border
DYEAR=1998
DGENRE=Country
TTITLE0=Run For The Border
TTITLE1=Johnny Will
TTITLE2=Take It Out In Love
TTITLE3=Return To Omagh
TTITLE4=This Darn'd Pen
TTITLE5=Ava Maria Morales
TTITLE6=The Diplomat
TTITLE7=Pamela Brown
TTITLE8=Your's Love
TTITLE9=Long Black Veil
TTITLE10=Isle Of Innesfree
TTITLE11=Rambling Fever
TTITLE12=I'm Not That Good At Goodbyes
TTITLE13=Goodbye My Friends
EXTD=
EXTT0=
EXTT1=
EXTT2=
EXTT3=
EXTT4=
EXTT5=
EXTT6=
EXTT7=
EXTT8=
EXTT9=
EXTT10=
EXTT11=
EXTT12=
EXTT13=
PLAYORDER=
